<?xml version="1.0" encoding="UTF-8" standalone="no"?>
<!-- Generator: Gravit.io -->
<svg xmlns="http://www.w3.org/2000/svg" xmlns:xlink="http://www.w3.org/1999/xlink" style="isolation:isolate" viewBox="0 0 970 119" width="970" height="119"><defs><clipPath id="_clipPath_iuOl0RRIwzbYaFK3TPtWU1Klt7xHJCSp"><rect width="970" height="119"/></clipPath></defs><g clip-path="url(#_clipPath_iuOl0RRIwzbYaFK3TPtWU1Klt7xHJCSp)"><path d=" M 359 29.2 L 395 29.2 L 395 47.2 L 359 47.2 L 359 29.2 Z  M 395 47.5 L 413 47.5 L 413 65.5 L 395 65.5 L 395 47.5 Z  M 152 100.2 L 170 100.2 L 170 118.2 L 152 118.2 L 152 100.2 Z  M 134 29.2 L 107 29.2 L 107 47.2 L 134 47.2 L 134 100.2 L 152 100.2 L 152 47.2 L 179 47.2 L 179 29.2 L 152 29.2 L 152 11.2 L 134 11.2 L 134 29.2 Z  M 341 47.5 L 359 47.5 L 359 65.5 L 341 65.5 L 341 47.5 Z  M 952 118.45 L 952 29.45 L 970 29.45 L 970 118.45 L 952 118.45 Z  M 880 118.45 L 880 29.45 L 898 29.45 L 898 118.45 L 880 118.45 Z  M 843 118.45 L 843 29.45 L 861 29.45 L 861 118.45 L 843 118.45 Z  M 323 118.45 L 323 29.45 L 341 29.45 L 341 118.45 L 323 118.45 Z  M 197 82.7 L 215 82.7 L 215 100.7 L 197 100.7 L 197 82.7 Z  M 215 64.7 L 287 64.7 L 287 82.7 L 215 82.7 L 215 64.7 Z  M 215 100.2 L 287 100.2 L 287 118.2 L 215 118.2 L 215 100.2 Z  M 215 29.2 L 287 29.2 L 287 47.2 L 215 47.2 L 215 29.2 Z  M 287 100.7 L 287 47.2 L 305 47.2 L 305 100.7 L 287 100.7 Z  M 573 101 L 573 29.2 L 591 29.2 L 591 101 L 573 101 Z  M 536 101 L 591 101 L 591 119 L 535 119 L 535 101.2 L 518 101.2 L 518 29.2 L 536 29.2 L 536 101 Z  M 626 83 L 680 83 L 680 101 L 626 101 L 626 83 Z  M 644 30 L 680 30 L 680 48 L 644 48 L 644 30 Z  M 680 48 L 698 48 L 698 84 L 680 84 L 680 48 Z  M 626 47.5 L 644 47.5 L 644 65.5 L 626 65.5 L 626 47.5 Z  M 476 101 L 494 101 L 494 119 L 476 119 L 476 101 Z  M 608 119 L 608 30 L 626 30 L 626 119 L 608 119 Z  M 458 30 L 431 30 L 431 48 L 458 48 L 458 101 L 476 101 L 476 48 L 503 48 L 503 30 L 476 30 L 476 12 L 458 12 L 458 30 Z  M 843 0 L 861 0 L 861 18 L 843 18 L 843 0 Z  M 72 82.2 L 90 82.2 L 90 100.2 L 72 100.2 L 72 82.2 Z  M 1 47.2 L 19 47.2 L 19 65.2 L 1 65.2 L 1 47.2 Z  M 18 65.2 L 72 65.2 L 72 82.2 L 18 82.2 L 18 65.2 Z  M 0 100.2 L 72 100.2 L 72 118.2 L 0 118.2 L 0 100.2 Z  M 18 29.2 L 90 29.2 L 90 47.2 L 18 47.2 L 18 29.2 Z  M 934 48 L 952 48 L 952 66 L 934 66 L 934 48 Z  M 916 66 L 934 66 L 934 84 L 916 84 L 916 66 Z  M 898 48 L 916 48 L 916 66 L 898 66 L 898 48 Z  M 804 83 L 822 83 L 822 101 L 804 101 L 804 83 Z  M 733 48 L 751 48 L 751 66 L 733 66 L 733 48 Z  M 750 66 L 804 66 L 804 83 L 750 83 L 750 66 Z  M 732 101 L 804 101 L 804 119 L 732 119 L 732 101 Z  M 750 30 L 822 30 L 822 48 L 750 48 L 750 30 Z " fill="rgb(0,0,0)"/></g></svg>